<svg xmlns="http://www.w3.org/2000/svg" width="27" height="28" viewBox="0 0 27 28">
    <defs>
        <linearGradient id="a" x1="50%" x2="50%" y1="0%" y2="101.259%">
            <stop offset="0%" stop-color="#864BFF"/>
            <stop offset="100%" stop-color="#5082FF"/>
        </linearGradient>
    </defs>
    <path fill="url(#a)" fill-rule="evenodd" d="M17.058 23.32h-.106c-1.068 1.387-2.384 2.383-3.95 2.988a13.221 13.221 0 0 1-4.802.907 11.25 11.25 0 0 1-3.415-.507c-1.067-.338-1.983-.845-2.748-1.52a5.962 5.962 0 0 1-1.681-2.509C0 21.683-.09 20.527.089 19.211c.32-2.242 1.165-3.976 2.535-5.203 1.37-1.228 2.988-2.135 4.856-2.722a23.599 23.599 0 0 1 5.87-1.04c2.045-.107 3.904-.16 5.576-.16.178-1.423-.178-2.553-1.067-3.389-.89-.836-2.028-1.254-3.415-1.254a8.506 8.506 0 0 0-3.71.827c-1.155.552-2.231 1.308-3.228 2.268L3.878 4.162a17.308 17.308 0 0 1 5.63-3.121A19.878 19.878 0 0 1 15.83 0c2.348 0 4.242.293 5.683.88 1.441.587 2.535 1.45 3.282 2.589.747 1.138 1.183 2.534 1.307 4.189.125 1.654.027 3.566-.293 5.736l-1.814 13.18H16.63l.427-3.254zm-.853-8.112c-.605 0-1.361.027-2.268.08-.908.054-1.797.205-2.669.454a6.903 6.903 0 0 0-2.294 1.12c-.658.499-1.04 1.192-1.147 2.082-.072.498-.018.916.16 1.254.178.338.427.631.747.88.32.25.702.427 1.147.534.445.107.88.16 1.307.16.783 0 1.557-.107 2.322-.32a7.85 7.85 0 0 0 2.08-.907 5.478 5.478 0 0 0 1.575-1.494c.427-.605.694-1.317.8-2.135l.214-1.708h-1.974z"/>
</svg>
